<?xml version="1.0" standalone="no"?>
<!DOCTYPE svg PUBLIC "-//W3C//DTD SVG 20010904//EN"
 "http://www.w3.org/TR/2001/REC-SVG-20010904/DTD/svg10.dtd">
<svg version="1.0" xmlns="http://www.w3.org/2000/svg"
 width="289.000000pt" height="289.000000pt" viewBox="0 0 289.000000 289.000000"
 preserveAspectRatio="xMidYMid meet">
<metadata>
Created by potrace 1.14, written by Peter Selinger 2001-2017
</metadata>
<g transform="translate(0.000000,289.000000) scale(0.100000,-0.100000)"
fill="#000000" stroke="none">
<path d="M1178 2434 c-2 -1 -15 -5 -28 -8 -58 -12 -70 -15 -121 -37 -54 -24
-163 -91 -173 -108 -3 -5 5 -25 19 -45 14 -20 32 -50 40 -66 15 -30 15 -30
-17 -50 -18 -11 -37 -20 -43 -20 -5 0 -46 -23 -90 -51 -378 -242 -474 -745
-215 -1124 38 -54 158 -175 175 -175 8 0 89 -54 96 -63 3 -5 9 -8 13 -7 4 1
30 -7 59 -18 29 -11 61 -24 72 -28 11 -4 28 -8 38 -9 9 -2 18 -4 20 -5 1 -1
11 -4 22 -6 11 -1 34 -6 50 -10 37 -8 227 -9 275 0 41 7 101 20 135 30 43 12
156 67 173 83 7 7 17 13 22 13 5 0 21 10 35 23 15 12 50 42 79 67 58 50 124
133 180 228 24 39 54 74 84 94 43 30 53 33 122 32 67 -1 101 -4 165 -17 36 -8
109 -20 135 -23 14 -1 26 -3 28 -4 9 -7 94 -1 125 9 92 31 78 171 -17 171 -18
0 -68 -9 -112 -21 -90 -24 -185 -21 -276 7 -77 23 -94 33 -109 63 -8 14 -16
28 -20 31 -25 23 -70 110 -88 171 -82 272 -282 507 -500 589 -34 12 -61 27
-61 32 0 5 11 49 25 98 14 49 25 91 25 93 0 2 -28 17 -62 33 -56 26 -75 29
-170 30 -59 1 -108 0 -110 -2z"/>
</g>
</svg>
